<svg xmlns="http://www.w3.org/2000/svg" xmlns:xlink="http://www.w3.org/1999/xlink" width="100" height="164" viewBox="0 0 100 164"><svg width="64" height="64" viewBox="0 0 64 64" id="index" y="0"><path fill="#231F20" d="M59.695 27.01c-.492-.46-1.92-.678-8.542-.678-1.96 0-4.44.02-7.59.062-1.824.025-3.192.043-4.17.043-.578 0-.956-.005-1.192-.018h-.215c-.325.004-.647.01-.965.01-2.714 0-5.31-.226-7.215-2.925-.603-1.325-.082-3.84.198-5.195l.083-.394c.576-2.87.67-5.773-2.496-7.55-1.012-.57-2.017-.688-2.72-.325-.68.35-1.085 1.063-1.204 2.118-.034.31-.013.653.013 1.06.082 1.388.22 3.71-1.944 7.047-2.78 3.046-4.23 5.86-4.628 6.69-1.385.808-2.63 1.433-3.836 2.037l-.058.03c-1.288.647-2.62 1.318-4.092 2.192l-4.37.068H2.916v19.19h5.917l2.925.854c4.487 2.35 10.022 2.843 13.875 2.843 2.377 0 4.027-.19 4.188-.21.237.017.46.025.666.025 1.434 0 2.668-.42 3.667-1.254 1.692-1.413 2.224-3.597 2.38-4.526 1.484-.597 2.466-1.502 2.91-2.69.544-1.46.123-2.952-.203-3.76 1.3-.716 2.11-1.674 2.405-2.846.604-2.396-1.203-4.675-1.226-4.703-.02-.02-.042-.045-.062-.07.78-.097 2.07-.25 3.545-.43l2.052-.25c6.465-.775 11.878-1.43 12.66-1.582 1.352-.262 2.29-1.14 2.447-2.296.14-1.017-.398-2.02-1.367-2.566z"/></svg>
<svg width="100" height="100" viewBox="0 0 100 100" id="index3" y="64"><path d="M92.613 56.303L77 71.906c-.223.19-.505.297-.798.297l-67.4 8.352c-1.016 0-1.84-.826-1.84-1.844V38.18l.12-16.918c.017-1.006.837-1.814 1.844-1.814l11.7.615c.833 0 1.563.56 1.778 1.364l1.783 6.62h36.82c1.016 0 1.842.825 1.842 1.843v14.348L40.56 46.23c-1.067.098-2.055.584-2.784 1.377L12.29 75.397c-.308.334-.55.71-.732 1.108l6.606-3.09L40.14 49.452c.21-.227.492-.365.798-.393l41.148-3.687c.488-.055.973.217 1.2.66.23.445.166.984-.16 1.363l-5.133 5.982-27.7 2.82c-.745.008-1.476.242-2.085.668L24.826 70.3l24.98-11.685c.24-.19.54-.29.848-.27l41.234-4.2c.49.02.928.36 1.086.833.162.477.018 1-.36 1.325z"/></svg>
</svg>