<?xml version="1.0" encoding="utf-8"?>
<!-- Generator: Adobe Illustrator 16.0.0, SVG Export Plug-In . SVG Version: 6.00 Build 0)  -->
<!DOCTYPE svg PUBLIC "-//W3C//DTD SVG 1.1//EN" "http://www.w3.org/Graphics/SVG/1.1/DTD/svg11.dtd">
<svg version="1.1" id="Layer_5" xmlns="http://www.w3.org/2000/svg" xmlns:xlink="http://www.w3.org/1999/xlink" x="0px" y="0px"
	 width="100px" height="100px" viewBox="0 0 100 100" enable-background="new 0 0 100 100" xml:space="preserve">
<path d="M92.613,56.303L77,71.906c-0.223,0.189-0.505,0.297-0.798,0.297L8.803,80.555c-1.017,0-1.842-0.826-1.842-1.844V38.178
	L7.083,21.26c0.016-1.006,0.836-1.814,1.843-1.814l11.7,0.615c0.833,0,1.563,0.559,1.778,1.363l1.783,6.621h36.819
	c1.017,0,1.843,0.824,1.843,1.842v14.348L40.56,46.23c-1.067,0.098-2.055,0.584-2.784,1.377L12.29,75.396
	c-0.308,0.335-0.55,0.711-0.732,1.109l6.606-3.09l21.977-23.963c0.208-0.227,0.491-0.365,0.797-0.393l41.148-3.686
	c0.488-0.055,0.973,0.217,1.201,0.66c0.229,0.445,0.165,0.984-0.16,1.363l-5.134,5.982l-27.699,2.82
	c-0.746,0.008-1.477,0.242-2.086,0.668L24.826,70.3l24.981-11.685c0.239-0.191,0.54-0.289,0.847-0.27l41.234-4.199
	c0.49,0.02,0.928,0.359,1.086,0.832C93.136,55.455,92.992,55.977,92.613,56.303z"/>
</svg>
