<?xml version="1.0" encoding="utf-8"?>
<!-- Generator: Adobe Illustrator 15.0.0, SVG Export Plug-In . SVG Version: 6.00 Build 0)  -->
<!DOCTYPE svg PUBLIC "-//W3C//DTD SVG 1.1//EN" "http://www.w3.org/Graphics/SVG/1.1/DTD/svg11.dtd">
<svg version="1.1" id="Layer_1" xmlns="http://www.w3.org/2000/svg" xmlns:xlink="http://www.w3.org/1999/xlink" x="0px" y="0px"
	 width="64px" height="64px" viewBox="0 0 64 64" enable-background="new 0 0 64 64" xml:space="preserve">
<g>
	<path fill="#231F20" d="M59.695,27.011c-0.492-0.46-1.92-0.679-8.542-0.679c-1.961,0-4.44,0.019-7.589,0.062
		c-1.825,0.025-3.193,0.043-4.172,0.043c-0.577,0-0.955-0.005-1.191-0.018l-0.216,0.001c-0.325,0.004-0.647,0.01-0.965,0.01
		c-2.714,0-5.309-0.226-7.215-2.925c-0.603-1.325-0.082-3.839,0.198-5.195l0.083-0.394c0.576-2.871,0.671-5.773-2.496-7.551
		c-1.012-0.569-2.017-0.687-2.721-0.324c-0.68,0.349-1.084,1.062-1.203,2.117c-0.034,0.311-0.013,0.653,0.013,1.061
		c0.083,1.387,0.221,3.709-1.943,7.046c-2.78,3.046-4.231,5.859-4.628,6.689c-1.385,0.809-2.63,1.434-3.836,2.038l-0.058,0.03
		c-1.288,0.647-2.62,1.318-4.092,2.192l-4.37,0.068v0H2.916v17.872v1.318h1.837h4.081l2.924,0.854
		c4.487,2.35,10.022,2.843,13.875,2.843c2.377,0,4.027-0.188,4.188-0.21c0.236,0.018,0.458,0.026,0.665,0.026
		c1.434,0,2.668-0.421,3.667-1.254c1.692-1.414,2.224-3.598,2.38-4.527c1.484-0.597,2.466-1.502,2.91-2.691
		c0.544-1.458,0.123-2.951-0.203-3.759c1.3-0.716,2.11-1.674,2.405-2.846c0.604-2.396-1.203-4.675-1.226-4.703
		c-0.02-0.021-0.041-0.045-0.061-0.069c0.78-0.098,2.069-0.252,3.545-0.431l2.052-0.249c6.465-0.776,11.878-1.432,12.659-1.583
		c1.353-0.262,2.29-1.141,2.448-2.296C61.202,28.56,60.664,27.556,59.695,27.011z"/>
</g>
</svg>
